<svg id="Layer_1" xmlns="http://www.w3.org/2000/svg" viewBox="0 0 193 43"><style>.st0{fill:#efb757}.st1{fill:#fec965}.st2{font-family:&amp;apos;Roboto-Light&amp;apos;}.st3{font-size:18px}.st4{fill:#333}.st5{font-family:&amp;apos;Roboto-Medium&amp;apos;}</style><path class="st0" d="M28.2 32.5c.4.7.8 1.4 1.4 2.2 1.8 2.2 4 3.4 4.9 2.7.9-.7.1-3.1-1.7-5.3-.6-.7-1.3-1.4-1.9-1.9-.8.9-1.7 1.7-2.7 2.3z"/><path class="st1" d="M10.4 29.3c-.7.4-1.3 1-2 1.6-2 2-3 4.3-2.2 5.1.8.8 3.1-.2 5.1-2.2.7-.7 1.2-1.3 1.6-2-.9-.7-1.8-1.6-2.5-2.5z"/><path class="st0" d="M21.1 42.2c1.1 0 2-2.3 2-5.2 0-.9-.1-1.8-.3-2.5-.6.1-1.1.1-1.7.1v7.6z"/><path class="st1" d="M21 34.6c-.6 0-1.1 0-1.7-.1-.2.8-.3 1.6-.3 2.5 0 2.9.9 5.2 2 5.2v-7.6c.1 0 .1 0 0 0zM7.9 19.4c-.8-.2-1.7-.3-2.7-.3-2.9 0-5.2.9-5.2 2s2.3 2 5.2 2c1 0 1.9-.1 2.6-.3-.1-.5-.1-1-.1-1.6 0-.5.1-1.1.2-1.8z"/><path class="st0" d="M34.3 22.9c.8.2 1.7.3 2.7.3 2.9 0 5.2-.9 5.2-2s-2.3-2-5.2-2c-1 0-2 .1-2.8.3.1.6.1 1.2.1 1.9.1.5 0 1 0 1.5zm-2.8-9.8c.7-.4 1.5-1 2.3-1.8 2-2 3-4.3 2.2-5.1-.8-.8-3.1.2-5.1 2.2-.8.8-1.4 1.5-1.8 2.3.9.7 1.7 1.5 2.4 2.4z"/><path class="st1" d="M14.1 9.9c-.4-.8-.9-1.6-1.5-2.4-1.8-2.2-4-3.4-4.9-2.7-.9.7-.1 3.1 1.7 5.3.7.8 1.4 1.5 2 2 .9-.9 1.8-1.6 2.7-2.2zm7-9.9c-1.1 0-2 2.3-2 5.2 0 1.1.1 2.1.3 2.9C20 8 20.5 8 21 8h.1V0z"/><path class="st0" d="M21.1 8c.6 0 1.1.1 1.7.1.2-.8.3-1.8.3-2.9 0-2.9-.9-5.2-2-5.2v8zm0 23.2c5.5 0 10-4.5 10-10.1s-4.5-10-10-10.1v20.2z"/><path class="st1" d="M21 11.1c-5.6 0-10.1 4.5-10.1 10.1s4.6 10 10.1 10h.1L21 11.1c.1 0 .1 0 0 0z"/><text transform="translate(57.049 26.185)"><tspan x="0" y="0" class="st2 st3">waverly</tspan><tspan x="59.8" y="0" class="st4 st5 st3">drive #99</tspan></text></svg>