<svg id="Layer_1" xmlns="http://www.w3.org/2000/svg" viewBox="0 0 193 43"><style>.st0{fill:#efb757}.st1{fill:#fec965}.st2{enable-background:new}.st3{fill:#333}</style><path class="st0" d="M28.2 32.5c.4.7.8 1.4 1.4 2.2 1.8 2.2 4 3.4 4.9 2.7s.1-3.1-1.7-5.3c-.6-.7-1.3-1.4-1.9-1.9-.8.9-1.7 1.7-2.7 2.3z"/><path class="st1" d="M10.4 29.3c-.7.4-1.3 1-2 1.6-2 2-3 4.3-2.2 5.1s3.1-.2 5.1-2.2c.7-.7 1.2-1.3 1.6-2-.9-.7-1.8-1.6-2.5-2.5z"/><path class="st0" d="M21.1 42.2c1.1 0 2-2.3 2-5.2 0-.9-.1-1.8-.3-2.5-.6.1-1.1.1-1.7.1v7.6z"/><path class="st1" d="M21 34.6c-.6 0-1.1 0-1.7-.1-.2.8-.3 1.6-.3 2.5 0 2.9.9 5.2 2 5.2v-7.6c.1 0 .1 0 0 0zM7.9 19.4c-.8-.2-1.7-.3-2.7-.3-2.9 0-5.2.9-5.2 2s2.3 2 5.2 2c1 0 1.9-.1 2.6-.3-.1-.5-.1-1-.1-1.6 0-.5.1-1.1.2-1.8z"/><path class="st0" d="M34.3 22.9c.8.2 1.7.3 2.7.3 2.9 0 5.2-.9 5.2-2s-2.3-2-5.2-2c-1 0-2 .1-2.8.3.1.6.1 1.2.1 1.9.1.5 0 1 0 1.5zm-2.8-9.8c.7-.4 1.5-1 2.3-1.8 2-2 3-4.3 2.2-5.1s-3.1.2-5.1 2.2c-.8.8-1.4 1.5-1.8 2.3.9.7 1.7 1.5 2.4 2.4z"/><path class="st1" d="M14.1 9.9c-.4-.8-.9-1.6-1.5-2.4-1.8-2.2-4-3.4-4.9-2.7s-.1 3.1 1.7 5.3c.7.8 1.4 1.5 2 2 .9-.9 1.8-1.6 2.7-2.2zm7-9.9c-1.1 0-2 2.3-2 5.2 0 1.1.1 2.1.3 2.9C20 8 20.5 8 21 8h.1V0z"/><path class="st0" d="M21.1 8c.6 0 1.1.1 1.7.1.2-.8.3-1.8.3-2.9 0-2.9-.9-5.2-2-5.2v8zm0 23.2c5.5 0 10-4.5 10-10.1s-4.5-10-10-10.1v20.2z"/><path class="st1" d="M21 11.1c-5.6 0-10.1 4.5-10.1 10.1s4.6 10 10.1 10h.1L21 11.1c.1 0 .1 0 0 0z"/><path d="M60.7 24l.2.8.2-.9 2.3-7.3h.9l2.3 7.2.2 1 .2-.8 2-7.3h1l-2.8 9.5h-.9l-2.4-7.5-.1-.5-.1.5-2.4 7.5h-.9l-2.8-9.5h1.1l2 7.3zM78 26.2c-.1-.3-.2-.7-.2-1.3-.4.5-.8.9-1.4 1.1-.6.3-1.2.4-1.8.4-.9 0-1.7-.3-2.2-.8s-.8-1.2-.8-1.9c0-.9.4-1.7 1.2-2.2s1.8-.8 3.2-.8h1.9v-1.1c0-.7-.2-1.2-.6-1.6s-1-.6-1.8-.6c-.7 0-1.3.2-1.8.6s-.7.8-.7 1.4h-1.1c0-.8.4-1.4 1.1-2 .7-.6 1.6-.8 2.6-.8 1.1 0 1.9.3 2.5.8.6.5.9 1.3.9 2.2V24c0 .9.1 1.6.3 2.1v.1H78zm-3.3-.8c.7 0 1.3-.2 1.9-.5s1-.8 1.2-1.4v-2.1h-1.9c-1 0-1.9.2-2.5.6-.6.4-.9.9-.9 1.5 0 .5.2 1 .6 1.3s1 .6 1.6.6zm9.8-.7l2.9-8.1h1.1l-3.6 9.5H84l-3.6-9.5h1.1l3 8.1zm9.2 1.7c-.8 0-1.5-.2-2.2-.6s-1.2-1-1.5-1.7c-.4-.7-.5-1.5-.5-2.4v-.4c0-.9.2-1.7.5-2.5s.8-1.3 1.5-1.7 1.3-.6 2.1-.6c1.2 0 2.1.4 2.7 1.2.7.8 1 1.9 1 3.2v.6h-6.8v.2c0 1.1.3 2 .9 2.7.6.7 1.4 1.1 2.3 1.1.6 0 1.1-.1 1.5-.3s.8-.5 1.2-1l.7.5c-.8 1.1-1.9 1.7-3.4 1.7zm-.2-9c-.8 0-1.5.3-2 .9s-.9 1.4-1 2.3h5.7v-.1c0-.9-.3-1.7-.8-2.2s-1.1-.9-1.9-.9zm10.2.2c-.2 0-.5-.1-.7-.1-.7 0-1.2.2-1.7.5s-.8.9-1 1.6v6.5h-1v-9.5h1v1.5c.6-1.1 1.5-1.7 2.7-1.7.3 0 .5 0 .7.1v1.1zm2.9 8.6h-1.1V12.7h1.1v13.5zm5.8-1.5l2.8-8h1.1l-4.1 11.1-.2.5c-.5 1.2-1.3 1.7-2.4 1.7-.3 0-.5 0-.8-.1V29l.5.1c.5 0 .9-.1 1.3-.4.3-.3.6-.7.8-1.3l.5-1.3-3.6-9.4h1.2l2.9 8z" class="st2"/><g class="st2"><path class="st3" d="M117.5 21.4c0-1.5.3-2.6 1-3.5.7-.9 1.6-1.3 2.7-1.3 1 0 1.8.4 2.4 1.1v-4.9h2.1v13.5h-1.9l-.1-1c-.6.8-1.5 1.2-2.6 1.2s-2-.4-2.7-1.3-.9-2.3-.9-3.8zm2.2.1c0 1 .2 1.7.6 2.3s.9.8 1.6.8c.9 0 1.5-.4 1.9-1.2v-4.1c-.4-.8-1-1.1-1.9-1.1-.7 0-1.2.3-1.6.8-.4.6-.6 1.4-.6 2.5zm13.4-2.9c-.3 0-.6-.1-.9-.1-1 0-1.6.4-2 1.1v6.5h-2.1v-9.5h2l.1 1.1c.5-.8 1.2-1.2 2.1-1.2.3 0 .6 0 .8.1v2zm1.3-4.4c0-.3.1-.6.3-.8.2-.2.5-.3.9-.3s.7.1.9.3c.2.2.3.5.3.8 0 .3-.1.6-.3.8s-.5.3-.9.3-.7-.1-.9-.3-.3-.5-.3-.8zm2.3 12h-2.1v-9.5h2.1v9.5zm5.7-2.7l2-6.8h2.2l-3.3 9.5h-1.9l-3.3-9.5h2.2l2.1 6.8zm9.6 2.9c-1.4 0-2.5-.4-3.3-1.3-.8-.9-1.3-2-1.3-3.4v-.3c0-.9.2-1.8.5-2.5.4-.7.9-1.3 1.5-1.7s1.4-.6 2.2-.6c1.3 0 2.3.4 3 1.2s1.1 2 1.1 3.5v.9h-6.2c.1.8.3 1.4.8 1.9s1 .7 1.7.7c1 0 1.8-.4 2.4-1.2l1.2 1.1c-.4.6-.9 1-1.5 1.3-.6.2-1.3.4-2.1.4zm-.2-8.2c-.6 0-1.1.2-1.4.6s-.6 1-.7 1.7h4.1v-.2c0-.7-.2-1.3-.6-1.6s-.9-.5-1.4-.5zm15.4 4.4h-2l-.7 3.6H163l.7-3.6h-2v-1.4h2.3l.5-2.8h-2.1V17h2.4l.7-3.7h1.5l-.7 3.7h2l.7-3.7h1.5l-.7 3.7h1.8v1.4h-2.1l-.5 2.8h1.9v1.4h-2.2l-.7 3.6h-1.5l.7-3.6zm-1.7-1.4h2l.5-2.8h-2l-.5 2.8zm13.4-.4c-.7.8-1.5 1.1-2.5 1.1-1.1 0-2-.4-2.7-1.2s-1-1.8-1-3.1c0-.8.2-1.6.5-2.3s.8-1.2 1.5-1.6 1.4-.6 2.2-.6c1.3 0 2.3.5 3.1 1.4s1.1 2.2 1.1 3.9v.6c0 2.3-.5 4.1-1.6 5.3s-2.6 1.8-4.7 1.8h-.3v-1.8h.3c1.3 0 2.2-.3 2.9-.9.7-.4 1.1-1.3 1.2-2.6zm-2.1-.5c.4 0 .8-.1 1.2-.4s.7-.6.9-1v-.8c0-.9-.2-1.7-.6-2.3s-.9-.9-1.5-.9-1.1.3-1.5.8c-.4.5-.5 1.1-.5 1.9 0 .8.2 1.5.6 1.9s.8.8 1.4.8zm12.3.5c-.7.8-1.5 1.1-2.5 1.1-1.1 0-2-.4-2.7-1.2s-1-1.8-1-3.1c0-.8.2-1.6.5-2.3s.8-1.2 1.5-1.6 1.4-.6 2.2-.6c1.3 0 2.3.5 3.1 1.4s1.1 2.2 1.1 3.9v.6c0 2.3-.5 4.1-1.6 5.3s-2.6 1.8-4.7 1.8h-.3v-1.8h.3c1.3 0 2.2-.3 2.9-.9.7-.4 1.1-1.3 1.2-2.6zm-2.1-.5c.4 0 .8-.1 1.2-.4s.7-.6.9-1v-.8c0-.9-.2-1.7-.6-2.3s-.9-.9-1.5-.9-1.1.3-1.5.8c-.4.5-.5 1.1-.5 1.9 0 .8.2 1.5.6 1.9s.8.8 1.4.8z"/></g></svg>