<svg xmlns="http://www.w3.org/2000/svg" viewBox="0 0 134 94.4"><style>.st0{fill:#2e3191}.st0,.st1,.st2{fill-rule:evenodd;clip-rule:evenodd}.st1{fill:#8dd7f7}.st2{fill:#fff}</style><g id="Layer_1"><path class="st0" d="M68.1 8.2c8.6 0 15.8 6.1 17.1 14.2.7-.1 1.4-.1 2.2-.1 6.5 0 12.1 3.1 14.6 7.5 1.4-.3 2.8-.4 4.3-.4 9 0 16.2 5.4 16.2 12.1s-7.3 12.1-16.2 12.1c-3.5 0-6.8-.8-9.5-2.3-2.7 3-7.4 5-12.8 5h-.7c-3.7 3.1-8.8 5.1-14.6 5.1-4.3 0-8.3-1.1-11.6-3-2.8.9-6 1.5-9.5 1.5-10.9 0-19.7-5.3-19.7-11.9 0-.6.1-1.2.2-1.8h-.8c-9.8 0-17.8-3.8-17.8-8.6 0-3.8 5.2-7.1 12.3-8.2 1.5-4.1 5.9-7.2 11.1-7.4 3-3.3 8.1-5.5 13.7-5.5 2.1 0 4.1.3 5.9.8 3.2-5.5 9-9.1 15.6-9.1"/><path class="st1" d="M47 60c-10.2-.5-18.2-5.6-18.2-11.9 0-.5.1-1 .2-1.5h1.4c-.1.6-.2 1.1-.2 1.7-.1 6.1 7.3 11.1 16.8 11.7m37.1-3.4c-3.7 3.1-8.8 5-14.4 5h-.2c5.4 0 10.3-2 13.7-5h.9zM97 52.2c-2.5 2.4-6.5 4-11 4.3 4.2-.5 7.8-2.3 10-4.8.3.2.6.4 1 .5zM68.8 8.5c8.6 0 15.8 6.1 17.1 14.2.7-.1 1.4-.1 2.2-.1 6.5 0 12.1 3.1 14.6 7.5 1.4-.3 2.8-.4 4.3-.4 9 0 16.2 5.4 16.2 12.1 0 6.6-7.1 12-15.8 12.1 7.4-.9 13-5.8 13-11.7 0-6.6-6.9-11.9-15.5-11.9-1.4 0-2.8.2-4.2.4-2.4-4.3-7.8-7.3-14-7.3-.7 0-1.4 0-2.1.1-1.3-7.9-8.2-13.9-16.4-13.9-6.4 0-11.9 3.6-14.7 8.9-1.8-.5-3.7-.8-5.7-.8-5.4 0-10.2 2.1-13.1 5.4-5 .2-9.1 3.2-10.6 7.3-6.8 1.1-11.8 4.3-11.8 8 0 3.5 4.2 6.4 10.3 7.7-7.2-1.1-12.4-4.4-12.4-8.2 0-3.8 5.2-7.1 12.3-8.2 1.5-4.1 5.9-7.2 11.1-7.4 3-3.3 8.1-5.5 13.7-5.5 2.1 0 4.1.3 5.9.8 3.2-5.4 9-9.1 15.6-9.1z"/><path class="st2" d="M5.6 0h122.9c3.1 0 5.6 1.8 5.6 4.1v86.2c0 2.3-2.5 4.1-5.6 4.1H5.6c-3.1 0-5.6-1.8-5.6-4.1V4.1C0 1.8 2.5 0 5.6 0m2.7 2.2h117.4c2.9 0 5.3 1.8 5.3 3.9v82.1c0 2.2-2.4 3.9-5.3 3.9H8.3c-2.9 0-5.3-1.8-5.3-3.9V6.1C3 4 5.4 2.2 8.3 2.2z"/><path class="st2" d="M22 64.8c-.9-.3-1.4-1.4-1-2.3 0-.1.1-.3.2-.4l5-7.1c-.5 2.1-1.1 11-4.2 9.8m3.5 18.1c-.9-.3-1.4-1.4-1-2.3 0-.1.1-.2.2-.4l5-7.1c-.5 2.2-1.1 11-4.2 9.8m12.9-10.8c-.9-.3-1.4-1.4-1-2.3 0-.1.1-.2.2-.4l5-7.1c-.5 2.2-1 11-4.2 9.8m6.5 6.9c-.9-.3-1.4-1.4-1-2.3 0-.1.1-.3.2-.4l5-7.1c-.5 2.2-1.1 11-4.2 9.8m42.3-9.5c-.9-.3-1.4-1.4-1-2.3 0-.1.1-.3.2-.4l5-7.1c-.4 2.2-1 11-4.2 9.8m-9.5 7.4c-.9-.3-1.4-1.4-1-2.3 0-.1.1-.3.2-.4l5-7.1c-.4 2.1-1 11-4.2 9.8m22.9-8.3c-.9-.3-1.4-1.4-1-2.3 0-.1.1-.3.2-.4l5-7.1c-.4 2.2-1 11-4.2 9.8M89.8 80.3c-.9-.3-1.4-1.4-1-2.3 0-.1.1-.2.2-.4l5-7.1c-.4 2.2-1 11-4.2 9.8m14.7-5.2c-.9-.3-1.4-1.4-1-2.3 0-.1.1-.2.2-.4l5-7.1c-.4 2.2-1 11-4.2 9.8M91.8 11.5l-8.7 1.4-16 21 16.5-6.1-25.2 31.1 13.4-4.3-18.1 29.9L86.4 44l-16.7 7.8 26.4-31.3-21 8.2z"/></g></svg>