<?xml version="1.0" encoding="utf-8"?>
<!-- Generator: Adobe Illustrator 21.0.2, SVG Export Plug-In . SVG Version: 6.00 Build 0)  -->
<svg version="1.1" id="Layer_1" xmlns="http://www.w3.org/2000/svg" xmlns:xlink="http://www.w3.org/1999/xlink" x="0px" y="0px"
	 viewBox="0 0 193 43" style="enable-background:new 0 0 193 43;" xml:space="preserve">
<style type="text/css">
	.st0{fill:#EFB757;}
	.st1{fill:#FEC965;}
	.st2{enable-background:new    ;}
	.st3{fill:#333333;}
</style>
<g>
	<path class="st0" d="M28.2,32.5c0.4,0.7,0.8,1.4,1.4,2.2c1.8,2.2,4,3.4,4.9,2.7s0.1-3.1-1.7-5.3c-0.6-0.7-1.3-1.4-1.9-1.9
		C30.1,31.1,29.2,31.9,28.2,32.5z"/>
	<path class="st1" d="M10.4,29.3c-0.7,0.4-1.3,1-2,1.6c-2,2-3,4.3-2.2,5.1s3.1-0.2,5.1-2.2c0.7-0.7,1.2-1.3,1.6-2
		C12,31.1,11.1,30.2,10.4,29.3z"/>
	<path class="st0" d="M21.1,42.2c1.1,0,2-2.3,2-5.2c0-0.9-0.1-1.8-0.3-2.5c-0.6,0.1-1.1,0.1-1.7,0.1V42.2z"/>
	<path class="st1" d="M21,34.6c-0.6,0-1.1,0-1.7-0.1C19.1,35.3,19,36.1,19,37c0,2.9,0.9,5.2,2,5.2l0,0V34.6
		C21.1,34.6,21.1,34.6,21,34.6z"/>
	<path class="st1" d="M7.9,19.4c-0.8-0.2-1.7-0.3-2.7-0.3c-2.9,0-5.2,0.9-5.2,2s2.3,2,5.2,2c1,0,1.9-0.1,2.6-0.3
		c-0.1-0.5-0.1-1-0.1-1.6C7.7,20.7,7.8,20.1,7.9,19.4z"/>
	<path class="st0" d="M34.3,22.9c0.8,0.2,1.7,0.3,2.7,0.3c2.9,0,5.2-0.9,5.2-2s-2.3-2-5.2-2c-1,0-2,0.1-2.8,0.3
		c0.1,0.6,0.1,1.2,0.1,1.9C34.4,21.9,34.3,22.4,34.3,22.9z"/>
	<path class="st0" d="M31.5,13.1c0.7-0.4,1.5-1,2.3-1.8c2-2,3-4.3,2.2-5.1s-3.1,0.2-5.1,2.2c-0.8,0.8-1.4,1.5-1.8,2.3
		C30,11.4,30.8,12.2,31.5,13.1z"/>
	<path class="st1" d="M14.1,9.9c-0.4-0.8-0.9-1.6-1.5-2.4c-1.8-2.2-4-3.4-4.9-2.7s-0.1,3.1,1.7,5.3c0.7,0.8,1.4,1.5,2,2
		C12.3,11.2,13.2,10.5,14.1,9.9z"/>
	<path class="st1" d="M21.1,0c-1.1,0-2,2.3-2,5.2c0,1.1,0.1,2.1,0.3,2.9C20,8,20.5,8,21,8c0,0,0,0,0.1,0V0L21.1,0z"/>
	<path class="st0" d="M21.1,8c0.6,0,1.1,0.1,1.7,0.1c0.2-0.8,0.3-1.8,0.3-2.9c0-2.9-0.9-5.2-2-5.2V8z"/>
	<path class="st0" d="M21.1,31.2c5.5,0,10-4.5,10-10.1s-4.5-10-10-10.1V31.2z"/>
	<path class="st1" d="M21,11.1c-5.6,0-10.1,4.5-10.1,10.1s4.6,10,10.1,10h0.1L21,11.1C21.1,11.1,21.1,11.1,21,11.1z"/>
</g>
<g class="st2">
	<path d="M60.7,24l0.2,0.8l0.2-0.9l2.3-7.3h0.9l2.3,7.2l0.2,1L67,24l2-7.3H70l-2.8,9.5h-0.9l-2.4-7.5l-0.1-0.5l-0.1,0.5l-2.4,7.5
		h-0.9l-2.8-9.5h1.1L60.7,24z"/>
	<path d="M78,26.2c-0.1-0.3-0.2-0.7-0.2-1.3c-0.4,0.5-0.8,0.9-1.4,1.1c-0.6,0.3-1.2,0.4-1.8,0.4c-0.9,0-1.7-0.3-2.2-0.8
		s-0.8-1.2-0.8-1.9c0-0.9,0.4-1.7,1.2-2.2s1.8-0.8,3.2-0.8h1.9v-1.1c0-0.7-0.2-1.2-0.6-1.6s-1-0.6-1.8-0.6c-0.7,0-1.3,0.2-1.8,0.6
		s-0.7,0.8-0.7,1.4l-1.1,0c0-0.8,0.4-1.4,1.1-2c0.7-0.6,1.6-0.8,2.6-0.8c1.1,0,1.9,0.3,2.5,0.8c0.6,0.5,0.9,1.3,0.9,2.2V24
		c0,0.9,0.1,1.6,0.3,2.1v0.1H78z M74.7,25.4c0.7,0,1.3-0.2,1.9-0.5s1-0.8,1.2-1.4v-2.1h-1.9c-1,0-1.9,0.2-2.5,0.6
		c-0.6,0.4-0.9,0.9-0.9,1.5c0,0.5,0.2,1,0.6,1.3S74.1,25.4,74.7,25.4z"/>
	<path d="M84.5,24.7l2.9-8.1h1.1l-3.6,9.5H84l-3.6-9.5h1.1L84.5,24.7z"/>
	<path d="M93.7,26.4c-0.8,0-1.5-0.2-2.2-0.6s-1.2-1-1.5-1.7c-0.4-0.7-0.5-1.5-0.5-2.4v-0.4c0-0.9,0.2-1.7,0.5-2.5s0.8-1.3,1.5-1.7
		s1.3-0.6,2.1-0.6c1.2,0,2.1,0.4,2.7,1.2c0.7,0.8,1,1.9,1,3.2v0.6h-6.8v0.2c0,1.1,0.3,2,0.9,2.7c0.6,0.7,1.4,1.1,2.3,1.1
		c0.6,0,1.1-0.1,1.5-0.3s0.8-0.5,1.2-1l0.7,0.5C96.3,25.8,95.2,26.4,93.7,26.4z M93.5,17.4c-0.8,0-1.5,0.3-2,0.9s-0.9,1.4-1,2.3h5.7
		v-0.1c0-0.9-0.3-1.7-0.8-2.2S94.3,17.4,93.5,17.4z"/>
	<path d="M103.7,17.6c-0.2,0-0.5-0.1-0.7-0.1c-0.7,0-1.2,0.2-1.7,0.5s-0.8,0.9-1,1.6v6.5h-1v-9.5h1l0,1.5c0.6-1.1,1.5-1.7,2.7-1.7
		c0.3,0,0.5,0,0.7,0.1L103.7,17.6z"/>
	<path d="M106.6,26.2h-1.1V12.7h1.1V26.2z"/>
	<path d="M112.4,24.7l2.8-8h1.1l-4.1,11.1l-0.2,0.5c-0.5,1.2-1.3,1.7-2.4,1.7c-0.3,0-0.5,0-0.8-0.1l0-0.9l0.5,0.1
		c0.5,0,0.9-0.1,1.3-0.4c0.3-0.3,0.6-0.7,0.8-1.3l0.5-1.3l-3.6-9.4h1.2L112.4,24.7z"/>
</g>
<g class="st2">
	<path class="st3" d="M117.5,21.4c0-1.5,0.3-2.6,1-3.5c0.7-0.9,1.6-1.3,2.7-1.3c1,0,1.8,0.4,2.4,1.1v-4.9h2.1v13.5h-1.9l-0.1-1
		c-0.6,0.8-1.5,1.2-2.6,1.2c-1.1,0-2-0.4-2.7-1.3S117.5,22.9,117.5,21.4z M119.7,21.5c0,1,0.2,1.7,0.6,2.3s0.9,0.8,1.6,0.8
		c0.9,0,1.5-0.4,1.9-1.2v-4.1c-0.4-0.8-1-1.1-1.9-1.1c-0.7,0-1.2,0.3-1.6,0.8C119.9,19.6,119.7,20.4,119.7,21.5z"/>
	<path class="st3" d="M133.1,18.6c-0.3,0-0.6-0.1-0.9-0.1c-1,0-1.6,0.4-2,1.1v6.5h-2.1v-9.5h2l0.1,1.1c0.5-0.8,1.2-1.2,2.1-1.2
		c0.3,0,0.6,0,0.8,0.1L133.1,18.6z"/>
	<path class="st3" d="M134.4,14.2c0-0.3,0.1-0.6,0.3-0.8c0.2-0.2,0.5-0.3,0.9-0.3s0.7,0.1,0.9,0.3c0.2,0.2,0.3,0.5,0.3,0.8
		c0,0.3-0.1,0.6-0.3,0.8s-0.5,0.3-0.9,0.3s-0.7-0.1-0.9-0.3S134.4,14.5,134.4,14.2z M136.7,26.2h-2.1v-9.5h2.1V26.2z"/>
	<path class="st3" d="M142.4,23.5l2-6.8h2.2l-3.3,9.5h-1.9l-3.3-9.5h2.2L142.4,23.5z"/>
	<path class="st3" d="M152,26.4c-1.4,0-2.5-0.4-3.3-1.3c-0.8-0.9-1.3-2-1.3-3.4v-0.3c0-0.9,0.2-1.8,0.5-2.5c0.4-0.7,0.9-1.3,1.5-1.7
		s1.4-0.6,2.2-0.6c1.3,0,2.3,0.4,3,1.2s1.1,2,1.1,3.5v0.9h-6.2c0.1,0.8,0.3,1.4,0.8,1.9s1,0.7,1.7,0.7c1,0,1.8-0.4,2.4-1.2l1.2,1.1
		c-0.4,0.6-0.9,1-1.5,1.3C153.5,26.2,152.8,26.4,152,26.4z M151.8,18.2c-0.6,0-1.1,0.2-1.4,0.6s-0.6,1-0.7,1.7h4.1v-0.2
		c0-0.7-0.2-1.3-0.6-1.6S152.3,18.2,151.8,18.2z"/>
	<path class="st3" d="M167.2,22.6h-2l-0.7,3.6h-1.5l0.7-3.6h-2v-1.4h2.3l0.5-2.8h-2.1V17h2.4l0.7-3.7h1.5l-0.7,3.7h2l0.7-3.7h1.5
		l-0.7,3.7h1.8v1.4h-2.1l-0.5,2.8h1.9v1.4h-2.2l-0.7,3.6h-1.5L167.2,22.6z M165.5,21.2h2l0.5-2.8h-2L165.5,21.2z"/>
	<path class="st3" d="M178.9,20.8c-0.7,0.8-1.5,1.1-2.5,1.1c-1.1,0-2-0.4-2.7-1.2s-1-1.8-1-3.1c0-0.8,0.2-1.6,0.5-2.3
		s0.8-1.2,1.5-1.6s1.4-0.6,2.2-0.6c1.3,0,2.3,0.5,3.1,1.4s1.1,2.2,1.1,3.9v0.6c0,2.3-0.5,4.1-1.6,5.3s-2.6,1.8-4.7,1.8h-0.3v-1.8
		h0.3c1.3,0,2.2-0.3,2.9-0.9C178.4,23,178.8,22.1,178.9,20.8z M176.8,20.3c0.4,0,0.8-0.1,1.2-0.4s0.7-0.6,0.9-1v-0.8
		c0-0.9-0.2-1.7-0.6-2.3s-0.9-0.9-1.5-0.9s-1.1,0.3-1.5,0.8c-0.4,0.5-0.5,1.1-0.5,1.9c0,0.8,0.2,1.5,0.6,1.9S176.2,20.3,176.8,20.3z
		"/>
	<path class="st3" d="M189.1,20.8c-0.7,0.8-1.5,1.1-2.5,1.1c-1.1,0-2-0.4-2.7-1.2s-1-1.8-1-3.1c0-0.8,0.2-1.6,0.5-2.3
		s0.8-1.2,1.5-1.6s1.4-0.6,2.2-0.6c1.3,0,2.3,0.5,3.1,1.4s1.1,2.2,1.1,3.9v0.6c0,2.3-0.5,4.1-1.6,5.3s-2.6,1.8-4.7,1.8h-0.3v-1.8
		h0.3c1.3,0,2.2-0.3,2.9-0.9C188.6,23,189,22.1,189.1,20.8z M187,20.3c0.4,0,0.8-0.1,1.2-0.4s0.7-0.6,0.9-1v-0.8
		c0-0.9-0.2-1.7-0.6-2.3s-0.9-0.9-1.5-0.9s-1.1,0.3-1.5,0.8c-0.4,0.5-0.5,1.1-0.5,1.9c0,0.8,0.2,1.5,0.6,1.9S186.4,20.3,187,20.3z"
		/>
</g>
</svg>
