<?xml version="1.0" encoding="utf-8"?>
<!-- Generator: Adobe Illustrator 19.2.1, SVG Export Plug-In . SVG Version: 6.00 Build 0)  -->
<svg version="1.1" id="Layer_1" xmlns="http://www.w3.org/2000/svg" xmlns:xlink="http://www.w3.org/1999/xlink" x="0px" y="0px"
	 viewBox="0 0 193 43" style="enable-background:new 0 0 193 43;" xml:space="preserve">
<style type="text/css">
	.st0{fill:#EFB757;}
	.st1{fill:#FEC965;}
	.st2{font-family:'Roboto-Light';}
	.st3{font-size:18px;}
	.st4{fill:#333333;}
	.st5{font-family:'Roboto-Medium';}
</style>
<g>
	<g>
		<path class="st0" d="M28.2,32.5c0.4,0.7,0.8,1.4,1.4,2.2c1.8,2.2,4,3.4,4.9,2.7c0.9-0.7,0.1-3.1-1.7-5.3c-0.6-0.7-1.3-1.4-1.9-1.9
			C30.1,31.1,29.2,31.9,28.2,32.5z"/>
		<path class="st1" d="M10.4,29.3c-0.7,0.4-1.3,1-2,1.6c-2,2-3,4.3-2.2,5.1c0.8,0.8,3.1-0.2,5.1-2.2c0.7-0.7,1.2-1.3,1.6-2
			C12,31.1,11.1,30.2,10.4,29.3z"/>
		<path class="st0" d="M21.1,42.2c1.1,0,2-2.3,2-5.2c0-0.9-0.1-1.8-0.3-2.5c-0.6,0.1-1.1,0.1-1.7,0.1V42.2z"/>
		<path class="st1" d="M21,34.6c-0.6,0-1.1,0-1.7-0.1c-0.2,0.8-0.3,1.6-0.3,2.5c0,2.9,0.9,5.2,2,5.2c0,0,0,0,0,0L21,34.6
			C21.1,34.6,21.1,34.6,21,34.6z"/>
		<path class="st1" d="M7.9,19.4c-0.8-0.2-1.7-0.3-2.7-0.3c-2.9,0-5.2,0.9-5.2,2c0,1.1,2.3,2,5.2,2c1,0,1.9-0.1,2.6-0.3
			c-0.1-0.5-0.1-1-0.1-1.6C7.7,20.7,7.8,20.1,7.9,19.4z"/>
		<path class="st0" d="M34.3,22.9c0.8,0.2,1.7,0.3,2.7,0.3c2.9,0,5.2-0.9,5.2-2c0-1.1-2.3-2-5.2-2c-1,0-2,0.1-2.8,0.3
			c0.1,0.6,0.1,1.2,0.1,1.9C34.4,21.9,34.3,22.4,34.3,22.9z"/>
		<path class="st0" d="M31.5,13.1c0.7-0.4,1.5-1,2.3-1.8c2-2,3-4.3,2.2-5.1c-0.8-0.8-3.1,0.2-5.1,2.2c-0.8,0.8-1.4,1.5-1.8,2.3
			C30,11.4,30.8,12.2,31.5,13.1z"/>
		<path class="st1" d="M14.1,9.9c-0.4-0.8-0.9-1.6-1.5-2.4c-1.8-2.2-4-3.4-4.9-2.7c-0.9,0.7-0.1,3.1,1.7,5.3c0.7,0.8,1.4,1.5,2,2
			C12.3,11.2,13.2,10.5,14.1,9.9z"/>
		<path class="st1" d="M21.1,0c-1.1,0-2,2.3-2,5.2c0,1.1,0.1,2.1,0.3,2.9C20,8,20.5,8,21,8c0,0,0,0,0.1,0L21.1,0
			C21.1,0,21.1,0,21.1,0z"/>
		<path class="st0" d="M21.1,8c0.6,0,1.1,0.1,1.7,0.1c0.2-0.8,0.3-1.8,0.3-2.9c0-2.9-0.9-5.2-2-5.2V8z"/>
		<path class="st0" d="M21.1,31.2c5.5,0,10-4.5,10-10.1s-4.5-10-10-10.1V31.2z"/>
		<path class="st1" d="M21,11.1c-5.6,0-10.1,4.5-10.1,10.1S15.5,31.2,21,31.2c0,0,0.1,0,0.1,0L21,11.1C21.1,11.1,21.1,11.1,21,11.1z
			"/>
	</g>
	<text transform="matrix(1 0 0 1 57.0488 26.1854)"><tspan x="0" y="0" class="st2 st3">waverly</tspan><tspan x="59.8" y="0" class="st4 st5 st3">drive #99</tspan></text>
</g>
</svg>
