<?xml version="1.0" encoding="utf-8"?>
<!-- Generator: Adobe Illustrator 19.2.1, SVG Export Plug-In . SVG Version: 6.00 Build 0)  -->
<svg version="1.1" xmlns="http://www.w3.org/2000/svg" xmlns:xlink="http://www.w3.org/1999/xlink" x="0px" y="0px"
	 viewBox="0 0 134 94.4" style="enable-background:new 0 0 134 94.4;" xml:space="preserve">
<style type="text/css">
	.st0{fill-rule:evenodd;clip-rule:evenodd;fill:#2E3191;}
	.st1{fill-rule:evenodd;clip-rule:evenodd;fill:#8DD7F7;}
	.st2{fill-rule:evenodd;clip-rule:evenodd;fill:#FFFFFF;}
</style>
<g id="Layer_2">
</g>
<g id="Layer_1">
	<path class="st0" d="M68.1,8.2c8.6,0,15.8,6.1,17.1,14.2c0.7-0.1,1.4-0.1,2.2-0.1c6.5,0,12.1,3.1,14.6,7.5c1.4-0.3,2.8-0.4,4.3-0.4
		c9,0,16.2,5.4,16.2,12.1s-7.3,12.1-16.2,12.1c-3.5,0-6.8-0.8-9.5-2.3c-2.7,3-7.4,5-12.8,5c-0.2,0-0.4,0-0.7,0
		c-3.7,3.1-8.8,5.1-14.6,5.1c-4.3,0-8.3-1.1-11.6-3c-2.8,0.9-6,1.5-9.5,1.5c-10.9,0-19.7-5.3-19.7-11.9c0-0.6,0.1-1.2,0.2-1.8
		c-0.3,0-0.5,0-0.8,0c-9.8,0-17.8-3.8-17.8-8.6c0-3.8,5.2-7.1,12.3-8.2c1.5-4.1,5.9-7.2,11.1-7.4c3-3.3,8.1-5.5,13.7-5.5
		c2.1,0,4.1,0.3,5.9,0.8C55.7,11.8,61.5,8.2,68.1,8.2"/>
	<path class="st1" d="M47,60c-10.2-0.5-18.2-5.6-18.2-11.9c0-0.5,0.1-1,0.2-1.5c0.2,0,0.4,0,0.6,0c0.3,0,0.5,0,0.8,0
		c-0.1,0.6-0.2,1.1-0.2,1.7C30.1,54.4,37.5,59.4,47,60 M84.1,56.6c-3.7,3.1-8.8,5-14.4,5l-0.2,0c5.4,0,10.3-2,13.7-5
		c0.2,0,0.4,0,0.6,0L84.1,56.6z M97,52.2c-2.5,2.4-6.5,4-11,4.3c4.2-0.5,7.8-2.3,10-4.8C96.3,51.9,96.6,52.1,97,52.2z M68.8,8.5
		c8.6,0,15.8,6.1,17.1,14.2c0.7-0.1,1.4-0.1,2.2-0.1c6.5,0,12.1,3.1,14.6,7.5c1.4-0.3,2.8-0.4,4.3-0.4c9,0,16.2,5.4,16.2,12.1
		c0,6.6-7.1,12-15.8,12.1c7.4-0.9,13-5.8,13-11.7c0-6.6-6.9-11.9-15.5-11.9c-1.4,0-2.8,0.2-4.2,0.4c-2.4-4.3-7.8-7.3-14-7.3
		c-0.7,0-1.4,0-2.1,0.1c-1.3-7.9-8.2-13.9-16.4-13.9c-6.4,0-11.9,3.6-14.7,8.9c-1.8-0.5-3.7-0.8-5.7-0.8c-5.4,0-10.2,2.1-13.1,5.4
		c-5,0.2-9.1,3.2-10.6,7.3c-6.8,1.1-11.8,4.3-11.8,8c0,3.5,4.2,6.4,10.3,7.7c-7.2-1.1-12.4-4.4-12.4-8.2c0-3.8,5.2-7.1,12.3-8.2
		c1.5-4.1,5.9-7.2,11.1-7.4c3-3.3,8.1-5.5,13.7-5.5c2.1,0,4.1,0.3,5.9,0.8C56.4,12.2,62.2,8.5,68.8,8.5z"/>
	<path class="st2" d="M5.6,0h122.9c3.1,0,5.6,1.8,5.6,4.1v86.2c0,2.3-2.5,4.1-5.6,4.1H5.6c-3.1,0-5.6-1.8-5.6-4.1V4.1
		C0,1.8,2.5,0,5.6,0 M8.3,2.2h117.4c2.9,0,5.3,1.8,5.3,3.9v82.1c0,2.2-2.4,3.9-5.3,3.9H8.3c-2.9,0-5.3-1.8-5.3-3.9V6.1
		C3,4,5.4,2.2,8.3,2.2z"/>
	<path class="st2" d="M22,64.8c-0.9-0.3-1.4-1.4-1-2.3c0-0.1,0.1-0.3,0.2-0.4l0,0l5-7.1C25.7,57.1,25.1,66,22,64.8"/>
	<path class="st2" d="M25.5,82.9c-0.9-0.3-1.4-1.4-1-2.3c0-0.1,0.1-0.2,0.2-0.4l0,0l5-7.1C29.2,75.3,28.6,84.1,25.5,82.9"/>
	<path class="st2" d="M38.4,72.1c-0.9-0.3-1.4-1.4-1-2.3c0-0.1,0.1-0.2,0.2-0.4l0,0l5-7.1C42.1,64.5,41.6,73.3,38.4,72.1"/>
	<path class="st2" d="M44.9,79c-0.9-0.3-1.4-1.4-1-2.3c0-0.1,0.1-0.3,0.2-0.4l0,0l5-7.1C48.6,71.4,48,80.2,44.9,79"/>
	<path class="st2" d="M87.2,69.5c-0.9-0.3-1.4-1.4-1-2.3c0-0.1,0.1-0.3,0.2-0.4l0,0l5-7.1C91,61.9,90.4,70.7,87.2,69.5"/>
	<path class="st2" d="M77.7,76.9c-0.9-0.3-1.4-1.4-1-2.3c0-0.1,0.1-0.3,0.2-0.4l0,0l5-7.1C81.5,69.2,80.9,78.1,77.7,76.9"/>
	<path class="st2" d="M100.6,68.6c-0.9-0.3-1.4-1.4-1-2.3c0-0.1,0.1-0.3,0.2-0.4l0,0l5-7.1C104.4,61,103.8,69.8,100.6,68.6"/>
	<path class="st2" d="M89.8,80.3c-0.9-0.3-1.4-1.4-1-2.3c0-0.1,0.1-0.2,0.2-0.4l0,0l5-7.1C93.6,72.7,93,81.5,89.8,80.3"/>
	<path class="st2" d="M104.5,75.1c-0.9-0.3-1.4-1.4-1-2.3c0-0.1,0.1-0.2,0.2-0.4l0,0l5-7.1C108.3,67.5,107.7,76.3,104.5,75.1"/>
	<polygon class="st2" points="91.8,11.5 83.1,12.9 67.1,33.9 83.6,27.8 58.4,58.9 71.8,54.6 53.7,84.5 86.4,44 69.7,51.8 96.1,20.5 
		75.1,28.7 	"/>
</g>
</svg>
