<?xml version="1.0" encoding="utf-8"?>
<!-- Generator: Adobe Illustrator 21.0.2, SVG Export Plug-In . SVG Version: 6.00 Build 0)  -->
<svg version="1.1" id="Layer_1" xmlns="http://www.w3.org/2000/svg" xmlns:xlink="http://www.w3.org/1999/xlink" x="0px" y="0px"
	 viewBox="0 0 255.7 71.9" style="enable-background:new 0 0 255.7 71.9;" xml:space="preserve">
<style type="text/css">
	.st0{fill:#007AAF;}
	.st1{fill:#FFFFFF;}
</style>
<g>
	<g>
		<path d="M59.4,11.7c0.7,1.3,1.9,2.1,3.5,2.1c1.8,0,2.9-0.9,2.9-2.3c0-1.5-0.9-2.1-2.5-2.9l-1.1-0.5c-1.9-0.9-3-1.7-3-3.6
			c0-1.9,1.5-3.1,3.4-3.1c1.6,0,2.8,0.6,3.6,1.9l-1,0.6c-0.6-1-1.4-1.5-2.6-1.5c-1.3,0-2.2,0.8-2.2,2c0,1.3,0.7,1.7,2.3,2.5l1.1,0.5
			c2.1,1,3.2,2,3.2,4c0,2.2-1.6,3.5-4.1,3.5c-2.2,0-3.7-1-4.5-2.7L59.4,11.7z"/>
		<path d="M70.2,9.4v-1H71v-4h1.2v4h1.6v1h-1.6V13c0,0.6,0.2,0.9,0.7,0.9c0.3,0,0.5-0.1,0.7-0.3l0.5,0.8c-0.3,0.3-0.8,0.5-1.3,0.5
			c-1,0-1.7-0.6-1.7-1.8V9.4H70.2z"/>
		<path d="M77.1,14c0-0.5,0.4-0.9,0.9-0.9c0.5,0,0.9,0.4,0.9,0.9c0,0.5-0.4,0.9-0.9,0.9C77.6,14.9,77.1,14.5,77.1,14z"/>
		<path d="M88.8,1.3L88.8,1.3L95.1,9l6.2-7.7h0.1v13.5h-1.2V4.4l-5.1,6.4H95l-5-6.4v10.4h-1.2V1.3z"/>
		<path d="M105.4,5.3c0-0.5,0.4-0.8,0.8-0.8c0.4,0,0.8,0.3,0.8,0.8c0,0.5-0.4,0.8-0.8,0.8C105.8,6.1,105.4,5.7,105.4,5.3z
			 M105.6,8.4h1.2v6.4h-1.2V8.4z"/>
		<path d="M110.4,11.6c0-1.9,1.4-3.4,3.3-3.4c1.1,0,1.9,0.4,2.5,1l-0.8,0.7c-0.4-0.4-1-0.7-1.7-0.7c-1.2,0-2.1,1-2.1,2.3
			c0,1.3,0.8,2.3,2.1,2.3c0.9,0,1.5-0.3,1.9-0.8l0.8,0.7c-0.6,0.7-1.5,1.1-2.7,1.1C111.8,14.9,110.4,13.5,110.4,11.6z"/>
		<path d="M119.7,1h1.2v8.4c0.5-0.8,1.2-1.2,2.2-1.2c1.4,0,2.4,0.9,2.4,2.6v3.9h-1.2V11c0-1.1-0.5-1.7-1.6-1.7
			c-1.1,0-1.9,0.7-1.9,1.9v3.5h-1.2V1z"/>
		<path d="M133.4,10.9c0-1.2-0.6-1.6-1.5-1.6c-0.8,0-1.4,0.3-1.8,0.9l-0.8-0.7c0.6-0.9,1.5-1.3,2.6-1.3c1.6,0,2.6,0.9,2.6,2.6v3.9
			h-1.2v-0.7c-0.4,0.5-1.1,0.9-2,0.9c-1.3,0-2.4-0.7-2.4-2.1c0-1.3,1.1-2,2.5-2L133.4,10.9L133.4,10.9z M131.6,11.9
			c-0.8,0-1.4,0.3-1.4,1c0,0.7,0.5,1.1,1.4,1.1c1,0,1.8-0.5,1.8-1.4v-0.7H131.6z"/>
		<path d="M141.5,13.9c1,0,1.6-0.3,2-0.8l0.7,0.7c-0.6,0.7-1.5,1.1-2.7,1.1c-2.1,0-3.5-1.4-3.5-3.3c0-1.9,1.5-3.4,3.4-3.4
			c2,0,3.3,1.6,3.2,3.8h-5.4C139.5,13.2,140.3,13.9,141.5,13.9z M143.4,11c-0.2-1-0.8-1.8-2-1.8c-1.1,0-1.9,0.7-2.1,1.8H143.4z"/>
		<path d="M148.2,1h1.2v13.8h-1.2V1z"/>
		<path d="M153.8,3.1c-0.3-0.1-0.6-0.4-0.6-0.8c0-0.5,0.4-0.9,0.9-0.9s0.9,0.4,0.9,0.9c0,0.3-0.1,0.5-0.2,0.7l-0.9,1.5h-0.7
			L153.8,3.1z"/>
		<path d="M157,13.5l0.9-0.6c0.4,0.6,1,1,1.9,1c0.8,0,1.3-0.3,1.3-0.9c0-0.6-0.4-0.8-1.6-1.1c-1.3-0.3-2-0.8-2-2
			c0-1,0.8-1.8,2.1-1.8c1,0,1.7,0.4,2.2,1l-0.8,0.7c-0.3-0.4-0.7-0.7-1.4-0.7c-0.6,0-1,0.3-1,0.7c0,0.6,0.4,0.7,1.4,1
			c1.4,0.3,2.2,0.9,2.2,2.1c0,1.2-0.9,1.9-2.4,1.9C158.5,14.9,157.5,14.4,157,13.5z"/>
		<path d="M172.3,13.7v1.1h-1.2V1h1.2v8.5c0.4-0.8,1.2-1.2,2.3-1.2c1.8,0,3.1,1.4,3.1,3.4c0,1.9-1.4,3.3-3.1,3.3
			C173.5,14.9,172.7,14.5,172.3,13.7z M176.5,11.6c0-1.4-0.9-2.3-2.2-2.3c-1.3,0-2.1,1-2.1,2.3c0,1.3,0.9,2.3,2.1,2.3
			C175.7,13.9,176.5,12.9,176.5,11.6z"/>
		<path d="M180.3,8.4h1.3l1.9,4.5l1.9-4.5h1.2l-4.4,10.5H181l2-4.6L180.3,8.4z"/>
		<path d="M189.4,10.6h3.1v1.1h-3.1V10.6z"/>
		<path d="M195.7,9.4v-1h0.8v-4h1.2v4h1.6v1h-1.6V13c0,0.6,0.2,0.9,0.7,0.9c0.3,0,0.5-0.1,0.7-0.3l0.5,0.8c-0.3,0.3-0.8,0.5-1.3,0.5
			c-1,0-1.7-0.6-1.7-1.8V9.4H195.7z"/>
		<path d="M202.9,1h1.2v8.4c0.5-0.8,1.2-1.2,2.2-1.2c1.4,0,2.4,0.9,2.4,2.6v3.9h-1.2V11c0-1.1-0.5-1.7-1.6-1.7
			c-1.1,0-1.9,0.7-1.9,1.9v3.5h-1.2V1z"/>
		<path d="M215.6,13.9c1,0,1.6-0.3,2-0.8l0.7,0.7c-0.6,0.7-1.5,1.1-2.7,1.1c-2.1,0-3.5-1.4-3.5-3.3c0-1.9,1.5-3.4,3.4-3.4
			c2,0,3.3,1.6,3.2,3.8h-5.4C213.5,13.2,214.3,13.9,215.6,13.9z M217.5,11c-0.2-1-0.8-1.8-2-1.8c-1.1,0-1.9,0.7-2.1,1.8H217.5z"/>
		<path d="M221.9,10.6h3.1v1.1h-3.1V10.6z"/>
		<path d="M229.3,11.7c0.7,1.3,1.9,2.1,3.5,2.1c1.8,0,2.9-0.9,2.9-2.3c0-1.5-0.9-2.1-2.5-2.9l-1.1-0.5c-1.9-0.9-3-1.7-3-3.6
			c0-1.9,1.5-3.1,3.4-3.1c1.6,0,2.8,0.6,3.6,1.9l-1,0.6c-0.6-1-1.4-1.5-2.6-1.5c-1.3,0-2.2,0.8-2.2,2c0,1.3,0.7,1.7,2.3,2.5l1.1,0.5
			c2.1,1,3.2,2,3.2,4c0,2.2-1.6,3.5-4.1,3.5c-2.2,0-3.7-1-4.5-2.7L229.3,11.7z"/>
		<path d="M243.9,13.9c1,0,1.6-0.3,2-0.8l0.7,0.7c-0.6,0.7-1.5,1.1-2.7,1.1c-2.1,0-3.5-1.4-3.5-3.3c0-1.9,1.5-3.4,3.4-3.4
			c2,0,3.3,1.6,3.2,3.8h-5.4C241.8,13.2,242.6,13.9,243.9,13.9z M245.7,11c-0.2-1-0.8-1.8-2-1.8c-1.1,0-1.9,0.7-2.1,1.8H245.7z"/>
		<path d="M254.5,10.9c0-1.2-0.6-1.6-1.5-1.6c-0.8,0-1.4,0.3-1.8,0.9l-0.8-0.7c0.6-0.9,1.5-1.3,2.6-1.3c1.6,0,2.6,0.9,2.6,2.6v3.9
			h-1.2v-0.7c-0.4,0.5-1.1,0.9-2,0.9c-1.3,0-2.4-0.7-2.4-2.1c0-1.3,1.1-2,2.5-2L254.5,10.9L254.5,10.9z M252.7,11.9
			c-0.8,0-1.4,0.3-1.4,1c0,0.7,0.5,1.1,1.4,1.1c1,0,1.8-0.5,1.8-1.4v-0.7H252.7z"/>
		<path d="M63.4,49.7H60V28.6h5.4c5.8,0,9,3.2,9,8.1c0,4.8-3.2,8-9,8h-2.1V49.7z M65.3,41.7c4.1,0,5.7-1.9,5.7-5.1
			c0-3.2-1.7-5.1-5.7-5.1h-2v10.2H65.3z"/>
		<path d="M78.8,28.6h3.3v21.1h-3.3V28.6z"/>
		<path d="M86.6,39.1c0-6.2,4.7-10.8,10.8-10.8c3.9,0,6.6,1.5,8.4,4.1l-2.5,1.8c-1.4-1.9-3.2-2.9-6-2.9c-4.2,0-7.2,3.4-7.2,7.8
			c0,4.6,3.1,7.8,7.4,7.8c2.7,0,4.7-1,6.3-3.1l2.6,1.8c-2.2,2.9-4.9,4.3-9,4.3C91.2,50,86.6,45.4,86.6,39.1z"/>
		<path d="M121.9,28.6h3.8l-7.5,9.5l8.6,11.6h-4l-6.7-9.1l-2.3,2.9v6.3h-3.3V28.6h3.3v10.5L121.9,28.6z"/>
		<path d="M130.3,28.6h3.3v18.1h9.3v2.9h-12.6V28.6z"/>
		<path d="M147,28.6h13.4v2.9h-10.1v8.7h9v2.9h-9v3.6h10.5v2.9H147V28.6z"/>
		<path d="M165.5,28.6h7.5c4.2,0,6.2,2.4,6.2,5.4c0,1.9-1,3.2-2.5,4c2.5,0.7,4,2.6,4,5.3c0,3.6-2.3,6.4-7.1,6.4h-8V28.6z
			 M172.8,36.9c2.3,0,3.1-1.1,3.1-2.8c0-1.6-0.7-2.6-3.1-2.6h-4v5.4H172.8z M173.4,46.8c2.9,0,3.9-1.5,3.9-3.6s-1.2-3.7-4.1-3.7
			h-4.4v7.3H173.4z"/>
		<path d="M186,49.7h-3.3l9.2-21.5h0.2l9.3,21.5h-3.5l-1.2-2.9h-9.4L186,49.7z M191.9,35.5l-3.5,8.3h6.9L191.9,35.5z"/>
		<path d="M205.1,28.6h3.3v18.1h9.3v2.9h-12.6V28.6z"/>
		<path d="M221.8,28.6h3.3v18.1h9.3v2.9h-12.6V28.6z"/>
	</g>
	<g>
		<g>
			<path class="st0" d="M47.4,6.2c-3.7-4.5-9.8-5.7-14.8-3.4C30.2,1,27,0.2,23.3,0.9c-4.8,0.9-9.4,2.8-14,4.4
				C1,8.3-0.9,13.1,1.8,21.6c1.6,4.9,3.2,9.9,4.8,14.8c0.7,2.1,1.5,4.1,2.8,6c2.7,3.9,6.6,5.4,11,6c3.6,0.5,6.3,2,8.1,5.4
				c2,3.9,3.2,8,4.4,12.1c0.4,1.2,0.8,2.4,1.2,3.6c0.5,1.5,1.4,2.1,2.9,1.5c0.7-0.2,1.3-0.5,2-0.7c1.6-0.5,2-1.4,1.3-3.1
				c-1.8-4.2-3.4-8.4-4.4-12.8c-0.8-3.5-1.4-7.2,1.3-10.3c1.3-1.6,2.6-3.2,3.9-4.8c2.4-3.2,3.3-6.8,2.2-10.7c-0.3-1-0.6-2-0.9-3.1
				c1.2-0.5,2.3-1.1,3.4-2C50.9,19.3,51.7,11.5,47.4,6.2z M37.9,26.2c-6.8,0-12.3-5.5-12.3-12.3S31.1,1.7,37.9,1.7S50.1,7.2,50.1,14
				S44.6,26.2,37.9,26.2z"/>
			<path d="M35.9,71.9L35.9,71.9c-0.8,0-1.9-0.4-2.5-2.2c-0.3-0.8-0.5-1.7-0.8-2.5L32,65.5c-1.1-3.9-2.3-7.8-4.1-11.5
				c-1.6-3-4-4.6-7.6-5.1c-5.4-0.7-9-2.7-11.5-6.3c-1.3-1.9-2.1-4.1-2.8-6.1c-1.8-5.2-3.4-10.4-4.8-14.8c-2.9-8.9-0.5-14,7.9-17.1
				c0.8-0.3,1.6-0.6,2.4-0.9c3.8-1.4,7.7-2.8,11.7-3.6C24.1,0.1,25.1,0,26,0c2.5,0,4.8,0.7,6.7,2c1.6-0.7,3.3-1,5.1-1
				c3.9,0,7.6,1.7,10.1,4.8c4.6,5.6,3.8,13.8-1.8,18.4c-0.9,0.8-1.9,1.4-3,1.9c0.2,0.8,0.5,1.7,0.7,2.5c1.1,3.8,0.3,7.7-2.3,11.2
				c-1.1,1.5-2.3,2.9-3.4,4.2l-0.5,0.6c-2.5,3-1.9,6.5-1.1,9.8c0.9,3.8,2.3,7.7,4.4,12.7c0.4,1,0.5,1.8,0.2,2.5
				c-0.3,0.6-0.9,1.1-1.9,1.5c-0.2,0.1-0.5,0.2-0.7,0.2c-0.4,0.1-0.8,0.3-1.3,0.4C36.7,71.9,36.3,71.9,35.9,71.9z M26,1.3
				c-0.8,0-1.7,0.1-2.6,0.2c-3.9,0.7-7.8,2.1-11.5,3.5c-0.8,0.3-1.6,0.6-2.4,0.9c-7.8,2.8-9.8,7.2-7.1,15.5
				c1.4,4.4,3.1,9.5,4.8,14.8c0.7,2,1.4,4,2.7,5.8c2.3,3.3,5.6,5.1,10.6,5.7c4,0.5,6.8,2.4,8.6,5.8c1.9,3.8,3.1,7.8,4.2,11.7
				l0.2,0.6l0.4,1.1c0.3,0.8,0.5,1.7,0.8,2.5c0.4,1.1,0.9,1.3,1.3,1.3l0,0c0.2,0,0.5-0.1,0.8-0.2c0.4-0.2,0.9-0.3,1.3-0.4
				c0.2-0.1,0.5-0.2,0.7-0.2c0.6-0.2,1-0.5,1.1-0.8c0.1-0.3,0.1-0.8-0.2-1.4c-2.2-5.1-3.5-9.1-4.5-12.9c-0.8-3.5-1.5-7.4,1.4-10.9
				l0.5-0.6c1.1-1.4,2.3-2.8,3.4-4.2c2.4-3.2,3.1-6.6,2.1-10.1c-0.2-0.8-0.5-1.7-0.7-2.5l0-0.1c-1.2,0.4-2.5,0.6-3.9,0.6
				c-7.1,0-12.9-5.8-12.9-12.9c0-4.8,2.6-9,6.5-11.2C29.9,1.8,28,1.3,26,1.3z M37.9,2.4c-6.4,0-11.6,5.2-11.6,11.6
				s5.2,11.6,11.6,11.6c6.4,0,11.6-5.2,11.6-11.6S44.3,2.4,37.9,2.4z"/>
		</g>
		<g>
			<circle class="st1" cx="38" cy="13.9" r="12.2"/>
			<path d="M38,26.8c-7.1,0-12.9-5.8-12.9-12.9C25.1,6.8,30.9,1,38,1s12.9,5.8,12.9,12.9C50.9,21,45.1,26.8,38,26.8z M38,2.3
				c-6.4,0-11.6,5.2-11.6,11.6c0,6.4,5.2,11.6,11.6,11.6s11.6-5.2,11.6-11.6C49.6,7.5,44.4,2.3,38,2.3z"/>
		</g>
		<g>
			<ellipse transform="matrix(0.8728 -0.4882 0.4882 0.8728 -5.7721 21.4155)" cx="38.2" cy="21.8" rx="2.3" ry="2.3"/>
		</g>
		<g>
			<ellipse transform="matrix(0.8728 -0.4882 0.4882 0.8728 -1.9577 20.4212)" cx="38.2" cy="14" rx="2.3" ry="2.3"/>
		</g>
		<g>
			<ellipse transform="matrix(0.8728 -0.4882 0.4882 0.8728 -0.9495 24.0635)" cx="45.7" cy="13.9" rx="2.3" ry="2.3"/>
		</g>
		<g>
			<ellipse transform="matrix(0.8728 -0.4882 0.4882 0.8728 1.8556 19.4272)" cx="38.2" cy="6.2" rx="2.3" ry="2.3"/>
		</g>
		<g>
			<ellipse transform="matrix(0.8728 -0.4882 0.4882 0.8728 -2.9471 16.628)" cx="30.4" cy="14" rx="2.3" ry="2.3"/>
		</g>
	</g>
</g>
</svg>
